<svg xmlns="http://www.w3.org/2000/svg" version="1.1" xmlns:xlink="http://www.w3.org/1999/xlink" xmlns:svgjs="http://svgjs.com/svgjs" width="116" height="116"><svg width="116" height="116" viewBox="0 0 116 116" fill="none" xmlns="http://www.w3.org/2000/svg">
<path d="M74.0883 80.6532L74.0992 80.6586L74.1103 80.6638C79.7154 83.2744 85.5623 83.7747 91.3641 81.7713C96.143 80.1212 99.8782 77.5751 102.568 74.1889C105.256 70.8043 106.855 66.6358 107.451 61.8082C107.524 61.2171 107.642 60.9885 107.741 60.876C107.829 60.7756 108.023 60.6322 108.595 60.525C109.278 60.397 109.984 60.3312 110.739 60.2628C111.819 60.165 112.784 59.8188 113.479 59.1016C114.182 58.3769 114.48 57.4079 114.491 56.3335C114.503 55.201 114.5 54.0683 114.498 52.9428C114.498 52.7753 114.497 52.608 114.497 52.4408C114.495 51.3994 114.207 50.4421 113.5 49.7493C112.797 49.0602 111.83 48.7806 110.776 48.7755C110.356 48.7734 109.933 48.77 109.508 48.7666C107.975 48.7543 106.419 48.7418 104.868 48.792C104.578 48.8014 104.437 48.7528 104.352 48.706C104.258 48.6544 104.133 48.5512 103.958 48.2985C100.032 42.6411 94.6246 39.1512 87.5303 38.2227C83.8602 37.7423 80.2683 38.0394 76.7683 39.1571C70.6715 41.1042 66.3681 45.0743 63.4222 50.4289L64.248 50.8833L63.4222 50.4289C63.405 50.4602 63.3887 50.4916 63.3734 50.5222C59.8239 48.922 56.2092 48.9123 52.6602 50.4843C52.6358 50.4433 52.6113 50.4024 52.587 50.3616C52.2108 49.7323 51.8454 49.1208 51.4624 48.537C45.9462 40.1289 36.7319 36.8415 27.4467 38.3584C20.6796 39.4639 15.5681 43.0204 11.9285 48.5286C11.8157 48.6993 11.752 48.7338 11.7347 48.7426C11.7129 48.7537 11.6398 48.7855 11.4212 48.7827C9.28641 48.7544 7.15281 48.7607 5.02351 48.7832C4.13949 48.7925 3.2994 49.0602 2.65576 49.6111C2.00074 50.1718 1.61577 50.9712 1.57486 51.8946L1.57173 51.9652C1.49836 53.6195 1.4197 55.3931 1.67546 57.1654C1.79603 58.001 2.16229 58.7357 2.75554 59.2852C3.34548 59.8316 4.10767 60.1471 4.94714 60.2416C5.45347 60.2986 5.97811 60.3362 6.47792 60.3721C6.708 60.3886 6.93281 60.4048 7.14816 60.4223C7.71396 60.4682 8.04215 60.6216 8.22388 60.7784C8.38759 60.9196 8.5155 61.1334 8.54606 61.5076C8.85634 65.3072 10.0401 68.8508 12.137 72.0808C16.3006 78.4941 22.3403 82.2212 30.1705 82.8437C35.9038 83.2995 41.1982 81.7505 45.7514 78.3122C51.6385 73.8666 54.7612 67.9558 54.9484 60.6865C54.9801 59.4562 54.9295 58.22 54.7625 56.9822C54.7563 56.936 54.7595 56.914 54.7604 56.9089C54.7605 56.908 54.7607 56.9072 54.7608 56.9065C54.7614 56.9042 54.762 56.9027 54.7637 56.8996C54.7704 56.8876 54.8095 56.8268 54.9572 56.7291C55.5926 56.3085 56.7018 56.0319 57.931 56.0218C59.1604 56.0116 60.2737 56.2699 60.918 56.6849C61.1021 56.8035 61.1855 56.8806 61.2235 56.93C61.2311 56.94 61.2352 56.9467 61.2372 56.9503C61.2391 56.9538 61.2397 56.9553 61.2397 56.9555C61.2398 56.9556 61.2402 56.9568 61.2407 56.9601C61.2412 56.9634 61.2421 56.9714 61.2418 56.9852C61.237 57.1944 61.2369 57.3777 61.2369 57.5467C61.2367 57.868 61.2365 58.1374 61.2042 58.4346C60.7759 62.3704 61.5082 66.1129 63.188 69.6587C65.489 74.5155 69.1146 78.1869 74.0883 80.6532ZM7.52204 54.728L7.68213 55.6835L7.52203 54.728C7.4877 54.7337 7.47509 54.7299 7.47498 54.7299L7.47492 54.7299C7.47335 54.7295 7.46343 54.7271 7.44299 54.7126C7.39261 54.677 7.30579 54.5861 7.21432 54.4053C7.20165 54.3802 7.19525 54.3627 7.19209 54.3522C7.20605 54.3254 7.25357 54.2515 7.39003 54.1393C7.46249 54.0797 7.50895 54.0676 7.52416 54.0648C7.53784 54.0623 7.55249 54.0621 7.57715 54.0715C7.62191 54.0887 7.7443 54.1621 7.86336 54.3809C7.84795 54.5404 7.80436 54.601 7.79275 54.6154C7.77923 54.6323 7.72375 54.6942 7.52204 54.728ZM108.148 54.3666L107.164 54.5406L108.148 54.3665C108.148 54.3611 108.147 54.3565 108.147 54.3525C108.145 54.3414 108.146 54.3357 108.146 54.334C108.147 54.3313 108.148 54.3255 108.153 54.3144C108.166 54.2897 108.205 54.2298 108.31 54.1522L107.714 53.3488L108.31 54.1522C108.387 54.0951 108.461 54.0816 108.526 54.0898C108.593 54.0982 108.675 54.1335 108.748 54.2197C108.826 54.3098 108.819 54.3562 108.819 54.3626C108.818 54.3759 108.807 54.4552 108.68 54.5761C108.61 54.6413 108.548 54.6833 108.487 54.7097C108.346 54.6663 108.278 54.6175 108.248 54.5899C108.217 54.5611 108.174 54.5088 108.148 54.3666ZM80.8564 45.0628C89.0393 43.3818 97.0047 47.7454 99.6758 55.3116C102.863 65.0103 95.9876 74.0761 87.6038 75.6731C81.761 76.786 76.7393 75.3622 72.6232 71.179C69.2168 67.7171 67.8146 63.5917 68.214 58.8641C68.8074 51.8391 74.1519 46.4401 80.8564 45.0628ZM19.755 49.756C20.3962 49.05 21.1349 48.4299 21.943 47.8177C25.4189 45.3684 29.1869 44.4479 33.3651 44.8489C37.8935 45.2834 41.5646 47.1765 44.3597 50.5808C46.3977 53.0629 47.5807 55.8656 47.8468 59.0465C48.3204 64.7078 46.1288 69.2206 41.6123 72.7803C38.5624 75.1842 34.9632 76.2511 30.9727 75.9935C27.3637 75.7606 24.4005 74.7111 22.0462 72.9717C19.6913 71.232 17.8898 68.7609 16.6706 65.5967C14.4645 59.8715 15.4579 54.4869 19.755 49.756Z" fill="#185A96" stroke="#185A96" stroke-width="2"></path>
</svg><style>@media (prefers-color-scheme: light) { :root { filter: none; } }
@media (prefers-color-scheme: dark) { :root { filter: none; } }
</style></svg>