<svg xmlns="http://www.w3.org/2000/svg" version="1.1" xmlns:xlink="http://www.w3.org/1999/xlink" xmlns:svgjs="http://svgjs.com/svgjs" width="90" height="90"><svg width="90" height="90" viewBox="0 0 90 90" fill="none" xmlns="http://www.w3.org/2000/svg">
<mask id="SvgjsMask1000" maskUnits="userSpaceOnUse" x="0" y="0" width="90" height="90" fill="black">
<rect fill="white" width="90" height="90"></rect>
<path d="M57.4775 33.711C53.7979 31.8678 51.1323 29.1374 49.4363 25.5208C48.1976 22.8794 47.665 20.1114 47.978 17.2052C48.0205 16.8104 48.0023 16.4093 48.0113 16.0111C48.0212 15.5769 47.7396 15.3208 47.409 15.1056C46.0655 14.2314 43.2997 14.2602 41.976 15.1452C41.6236 15.3809 41.4312 15.6707 41.4879 16.0949C41.6101 17.0107 41.648 17.9304 41.6244 18.8531C41.4864 24.2637 39.2005 28.6446 34.847 31.9658C31.4908 34.526 27.6002 35.6764 23.3721 35.3368C17.5853 34.8721 13.1474 32.1064 10.0681 27.3147C8.52404 24.912 7.65293 22.2791 7.42412 19.4486C7.34908 18.5202 6.72608 17.9808 5.64217 17.892C5.08499 17.8463 4.52591 17.8169 3.97084 17.7538C2.95397 17.6382 2.26713 17.0017 2.12724 16.0224C1.93956 14.7086 1.99918 13.383 2.0569 12.067C2.102 11.0386 2.88396 10.4012 3.95166 10.3898C5.58789 10.3723 7.22462 10.3675 8.86069 10.3893C9.34282 10.3958 9.63348 10.2564 9.90414 9.8426C12.5968 5.72591 16.3515 3.0915 21.3375 2.26864C28.2242 1.13209 35.003 3.59138 39.0655 9.847C39.4901 10.5008 39.8734 11.1799 40.3333 11.9423C43.2472 10.4247 46.1966 10.4212 49.1109 11.9399C49.4151 11.7876 49.469 11.4994 49.5954 11.2673C51.7823 7.25165 54.9502 4.30988 59.4337 2.86342C62.0176 2.02982 64.6696 1.80725 67.388 2.16668C72.6268 2.85932 76.6016 5.44857 79.5073 9.67827C79.8536 10.1823 80.2184 10.4175 80.8663 10.3963C82.3718 10.347 83.8802 10.3764 85.3874 10.3838C86.7583 10.3906 87.4846 11.1128 87.4869 12.459C87.4887 13.4654 87.4926 14.4719 87.4823 15.4783C87.4681 16.8759 86.7272 17.6374 85.2934 17.7685C84.7167 17.8213 84.1369 17.8752 83.5693 17.9827C82.5324 18.179 82.191 18.6261 82.0658 19.6505C81.1758 26.9314 77.3156 32.0567 70.1893 34.5426C65.9278 36.0291 61.6315 35.6656 57.4775 33.711ZM77.5712 14.4401C75.3818 8.16224 68.8545 4.57256 62.1929 5.955C56.7292 7.08885 52.3323 11.5462 51.8436 17.3897C51.5178 21.2864 52.6716 24.7217 55.4579 27.5824C58.8206 31.0348 62.9536 32.2088 67.6887 31.2976C74.5415 29.979 80.197 22.4947 77.5712 14.4401ZM16.5199 8.23232C15.8765 8.72424 15.2616 9.24223 14.7192 9.84553C11.2181 13.7395 10.3892 18.2385 12.1951 22.9732C14.1614 28.1285 18.0705 31.1803 23.8793 31.5591C27.1317 31.7711 30.0936 30.8893 32.6 28.8937C36.2602 25.9794 38.0809 22.2235 37.6923 17.5323C37.4737 14.8921 36.498 12.5635 34.8344 10.5167C32.5447 7.69932 29.5253 6.13299 25.845 5.7762C22.4487 5.44694 19.3578 6.20843 16.5199 8.23232ZM6.90391 13.804C6.57683 12.977 5.8586 12.6951 5.27708 13.178C4.90764 13.4848 4.70716 13.8651 4.94362 14.3373C5.1543 14.7579 5.49789 15.0886 5.9951 15.0044C6.57756 14.9058 6.92768 14.5225 6.90391 13.804ZM83.6296 15.0218C83.8956 14.9866 84.1172 14.8643 84.3057 14.6842C84.7281 14.2808 84.7693 13.7543 84.4148 13.3358C84.0578 12.9143 83.472 12.8355 83.0331 13.164C82.7245 13.395 82.5425 13.7106 82.6091 14.0913C82.6966 14.5914 83.0164 14.9089 83.6296 15.0218Z"></path>
</mask>
<path d="M57.4775 33.711C53.7979 31.8678 51.1323 29.1374 49.4363 25.5208C48.1976 22.8794 47.665 20.1114 47.978 17.2052C48.0205 16.8104 48.0023 16.4093 48.0113 16.0111C48.0212 15.5769 47.7396 15.3208 47.409 15.1056C46.0655 14.2314 43.2997 14.2602 41.976 15.1452C41.6236 15.3809 41.4312 15.6707 41.4879 16.0949C41.6101 17.0107 41.648 17.9304 41.6244 18.8531C41.4864 24.2637 39.2005 28.6446 34.847 31.9658C31.4908 34.526 27.6002 35.6764 23.3721 35.3368C17.5853 34.8721 13.1474 32.1064 10.0681 27.3147C8.52404 24.912 7.65293 22.2791 7.42412 19.4486C7.34908 18.5202 6.72608 17.9808 5.64217 17.892C5.08499 17.8463 4.52591 17.8169 3.97084 17.7538C2.95397 17.6382 2.26713 17.0017 2.12724 16.0224C1.93956 14.7086 1.99918 13.383 2.0569 12.067C2.102 11.0386 2.88396 10.4012 3.95166 10.3898C5.58789 10.3723 7.22462 10.3675 8.86069 10.3893C9.34282 10.3958 9.63348 10.2564 9.90414 9.8426C12.5968 5.72591 16.3515 3.0915 21.3375 2.26864C28.2242 1.13209 35.003 3.59138 39.0655 9.847C39.4901 10.5008 39.8734 11.1799 40.3333 11.9423C43.2472 10.4247 46.1966 10.4212 49.1109 11.9399C49.4151 11.7876 49.469 11.4994 49.5954 11.2673C51.7823 7.25165 54.9502 4.30988 59.4337 2.86342C62.0176 2.02982 64.6696 1.80725 67.388 2.16668C72.6268 2.85932 76.6016 5.44857 79.5073 9.67827C79.8536 10.1823 80.2184 10.4175 80.8663 10.3963C82.3718 10.347 83.8802 10.3764 85.3874 10.3838C86.7583 10.3906 87.4846 11.1128 87.4869 12.459C87.4887 13.4654 87.4926 14.4719 87.4823 15.4783C87.4681 16.8759 86.7272 17.6374 85.2934 17.7685C84.7167 17.8213 84.1369 17.8752 83.5693 17.9827C82.5324 18.179 82.191 18.6261 82.0658 19.6505C81.1758 26.9314 77.3156 32.0567 70.1893 34.5426C65.9278 36.0291 61.6315 35.6656 57.4775 33.711ZM77.5712 14.4401C75.3818 8.16224 68.8545 4.57256 62.1929 5.955C56.7292 7.08885 52.3323 11.5462 51.8436 17.3897C51.5178 21.2864 52.6716 24.7217 55.4579 27.5824C58.8206 31.0348 62.9536 32.2088 67.6887 31.2976C74.5415 29.979 80.197 22.4947 77.5712 14.4401ZM16.5199 8.23232C15.8765 8.72424 15.2616 9.24223 14.7192 9.84553C11.2181 13.7395 10.3892 18.2385 12.1951 22.9732C14.1614 28.1285 18.0705 31.1803 23.8793 31.5591C27.1317 31.7711 30.0936 30.8893 32.6 28.8937C36.2602 25.9794 38.0809 22.2235 37.6923 17.5323C37.4737 14.8921 36.498 12.5635 34.8344 10.5167C32.5447 7.69932 29.5253 6.13299 25.845 5.7762C22.4487 5.44694 19.3578 6.20843 16.5199 8.23232ZM6.90391 13.804C6.57683 12.977 5.8586 12.6951 5.27708 13.178C4.90764 13.4848 4.70716 13.8651 4.94362 14.3373C5.1543 14.7579 5.49789 15.0886 5.9951 15.0044C6.57756 14.9058 6.92768 14.5225 6.90391 13.804ZM83.6296 15.0218C83.8956 14.9866 84.1172 14.8643 84.3057 14.6842C84.7281 14.2808 84.7693 13.7543 84.4148 13.3358C84.0578 12.9143 83.472 12.8355 83.0331 13.164C82.7245 13.395 82.5425 13.7106 82.6091 14.0913C82.6966 14.5914 83.0164 14.9089 83.6296 15.0218Z" fill="#185A96"></path>
<path d="M57.4775 33.711L56.5817 35.4992L56.6037 35.5102L56.626 35.5207L57.4775 33.711ZM49.4363 25.5208L51.247 24.6716L51.247 24.6716L49.4363 25.5208ZM47.978 17.2052L45.9895 16.991L45.9895 16.991L47.978 17.2052ZM48.0113 16.0111L46.0118 15.9658L46.0118 15.9658L48.0113 16.0111ZM47.409 15.1056L46.3181 16.7819L46.3181 16.7819L47.409 15.1056ZM41.976 15.1452L43.0877 16.8078L43.0877 16.8078L41.976 15.1452ZM41.4879 16.0949L43.4703 15.8303L43.4703 15.8302L41.4879 16.0949ZM41.6244 18.8531L39.6251 18.8021L39.6251 18.8021L41.6244 18.8531ZM34.847 31.9658L33.6339 30.3756L33.6339 30.3756L34.847 31.9658ZM23.3721 35.3368L23.5322 33.3432L23.5322 33.3432L23.3721 35.3368ZM10.0681 27.3147L8.38557 28.3959L8.38557 28.3959L10.0681 27.3147ZM7.42412 19.4486L5.43063 19.6098L5.43063 19.6098L7.42412 19.4486ZM5.64217 17.892L5.80557 15.8987L5.80556 15.8987L5.64217 17.892ZM3.97084 17.7538L3.74495 19.741L3.74495 19.741L3.97084 17.7538ZM2.12724 16.0224L4.10714 15.7396L4.10714 15.7396L2.12724 16.0224ZM2.0569 12.067L4.05498 12.1547L4.05498 12.1547L2.0569 12.067ZM3.95166 10.3898L3.97297 12.3897L3.97297 12.3897L3.95166 10.3898ZM8.86069 10.3893L8.83396 12.3891L8.83398 12.3891L8.86069 10.3893ZM9.90414 9.8426L8.23038 8.74782L8.23038 8.74782L9.90414 9.8426ZM21.3375 2.26864L21.6631 4.24195L21.6631 4.24195L21.3375 2.26864ZM39.0655 9.847L40.7429 8.75771L40.7429 8.75771L39.0655 9.847ZM40.3333 11.9423L38.6206 12.9752L39.5909 14.5839L41.2571 13.7161L40.3333 11.9423ZM49.1109 11.9399L48.1866 13.7135L49.0926 14.1857L50.0062 13.7283L49.1109 11.9399ZM49.5954 11.2673L47.839 10.3107L47.839 10.3107L49.5954 11.2673ZM59.4337 2.86342L60.0478 4.76682L60.0478 4.76682L59.4337 2.86342ZM67.388 2.16668L67.1259 4.14942L67.1259 4.14942L67.388 2.16668ZM79.5073 9.67827L77.8588 10.8107L77.8588 10.8108L79.5073 9.67827ZM80.8663 10.3963L80.9318 12.3952L80.9318 12.3952L80.8663 10.3963ZM85.3874 10.3838L85.3973 8.38384L85.3973 8.38384L85.3874 10.3838ZM87.4869 12.459L85.4869 12.4625L85.4869 12.4625L87.4869 12.459ZM87.4823 15.4783L85.4824 15.458L85.4824 15.458L87.4823 15.4783ZM85.2934 17.7685L85.1113 15.7768L85.1113 15.7768L85.2934 17.7685ZM83.5693 17.9827L83.1973 16.0176L83.1973 16.0176L83.5693 17.9827ZM82.0658 19.6505L80.0806 19.4078L80.0806 19.4078L82.0658 19.6505ZM70.1893 34.5426L69.5306 32.6542L69.5306 32.6542L70.1893 34.5426ZM77.5712 14.4401L79.4727 13.8202L79.4664 13.8008L79.4596 13.7816L77.5712 14.4401ZM62.1929 5.955L61.7866 3.99672L61.7866 3.99672L62.1929 5.955ZM51.8436 17.3897L49.8506 17.223L49.8506 17.223L51.8436 17.3897ZM55.4579 27.5824L56.8907 26.1869L56.8907 26.1869L55.4579 27.5824ZM67.6887 31.2976L67.3108 29.3336L67.3108 29.3337L67.6887 31.2976ZM16.5199 8.23232L15.3587 6.60398L15.3316 6.62326L15.3052 6.64343L16.5199 8.23232ZM14.7192 9.84553L13.232 8.50834L13.2319 8.50834L14.7192 9.84553ZM12.1951 22.9732L14.0638 22.2604L14.0638 22.2604L12.1951 22.9732ZM23.8793 31.5591L24.0094 29.5633L24.0094 29.5633L23.8793 31.5591ZM32.6 28.8937L31.3542 27.3291L31.3542 27.3291L32.6 28.8937ZM37.6923 17.5323L39.6855 17.3672L39.6855 17.3672L37.6923 17.5323ZM34.8344 10.5167L36.3865 9.25524L36.3865 9.25524L34.8344 10.5167ZM25.845 5.7762L25.652 7.76687L25.652 7.76687L25.845 5.7762ZM6.90391 13.804L8.90282 13.7379L8.89135 13.3911L8.76374 13.0685L6.90391 13.804ZM5.27708 13.178L3.99931 11.6394L3.9993 11.6394L5.27708 13.178ZM4.94362 14.3373L6.73188 13.4416L6.73188 13.4416L4.94362 14.3373ZM5.9951 15.0044L5.66133 13.0325L5.66132 13.0325L5.9951 15.0044ZM83.6296 15.0218L83.2673 16.9887L83.5787 17.0461L83.8925 17.0045L83.6296 15.0218ZM84.3057 14.6842L82.9242 13.238L82.9242 13.238L84.3057 14.6842ZM84.4148 13.3358L82.8886 14.6284L82.8887 14.6284L84.4148 13.3358ZM83.0331 13.164L84.2317 14.7651L84.2317 14.7651L83.0331 13.164ZM82.6091 14.0913L84.5792 13.7466L84.5792 13.7466L82.6091 14.0913ZM58.3732 31.9229C55.0878 30.277 52.7486 27.8736 51.247 24.6716L47.6255 26.3699C49.516 30.4013 52.5081 33.4586 56.5817 35.4992L58.3732 31.9229ZM51.247 24.6716C50.1493 22.3307 49.6962 19.9288 49.9665 17.4194L45.9895 16.991C45.6337 20.2939 46.2459 23.4282 47.6255 26.3699L51.247 24.6716ZM49.9665 17.4194C50.0205 16.9178 50.0061 16.2658 50.0108 16.0564L46.0118 15.9658C45.9985 16.5529 46.0205 16.703 45.9895 16.991L49.9665 17.4194ZM50.0108 16.0565C50.046 14.5032 48.929 13.7086 48.4998 13.4293L46.3181 16.7819C46.4218 16.8494 46.3452 16.8174 46.2462 16.6873C46.1881 16.611 46.1227 16.5022 46.075 16.3625C46.0266 16.2207 46.0092 16.0836 46.0118 15.9658L50.0108 16.0565ZM48.4998 13.4293C47.3706 12.6944 45.8988 12.4555 44.6684 12.4658C43.4376 12.476 41.9755 12.7397 40.8643 13.4827L43.0877 16.8078C43.3001 16.6658 43.8828 16.4725 44.7018 16.4656C45.5211 16.4588 46.1039 16.6425 46.3181 16.7819L48.4998 13.4293ZM40.8643 13.4827C40.525 13.7095 40.1156 14.0583 39.8254 14.5869C39.5161 15.1502 39.4261 15.765 39.5055 16.3596L43.4703 15.8302C43.493 16.0007 43.4709 16.2584 43.3317 16.5118C43.2117 16.7306 43.0746 16.8166 43.0877 16.8078L40.8643 13.4827ZM39.5055 16.3596C39.6116 17.1548 39.6464 17.9676 39.6251 18.8021L43.6238 18.9041C43.6496 17.8933 43.6086 16.8665 43.4703 15.8303L39.5055 16.3596ZM39.6251 18.8021C39.503 23.5902 37.5193 27.4116 33.6339 30.3756L36.06 33.5559C40.8818 29.8776 43.4699 24.9371 43.6238 18.9041L39.6251 18.8021ZM33.6339 30.3756C30.6691 32.6373 27.2673 33.6432 23.5322 33.3432L23.212 37.3304C27.933 37.7096 32.3125 36.4147 36.06 33.5559L33.6339 30.3756ZM23.5322 33.3432C18.3863 32.93 14.503 30.5164 11.7506 26.2334L8.38557 28.3959C11.7918 33.6964 16.7842 36.8142 23.212 37.3304L23.5322 33.3432ZM11.7506 26.2334C10.3885 24.1138 9.62058 21.7982 9.41762 19.2875L5.43063 19.6098C5.68528 22.76 6.65962 25.7102 8.38557 28.3959L11.7506 26.2334ZM9.41762 19.2875C9.34461 18.3843 8.97719 17.5029 8.22553 16.8477C7.50786 16.2223 6.62718 15.966 5.80557 15.8987L5.47878 19.8853C5.74107 19.9068 5.71384 19.9647 5.59741 19.8632C5.5377 19.8112 5.48825 19.7446 5.45685 19.6779C5.42737 19.6153 5.42856 19.5843 5.43063 19.6098L9.41762 19.2875ZM5.80556 15.8987C5.16699 15.8463 4.71403 15.8254 4.19672 15.7666L3.74495 19.741C4.33779 19.8083 5.00299 19.8463 5.47878 19.8853L5.80556 15.8987ZM4.19672 15.7666C4.12198 15.7581 4.08336 15.7435 4.07167 15.7384C4.06117 15.7338 4.07011 15.7361 4.08667 15.7516C4.10367 15.7675 4.11448 15.7841 4.11889 15.7928C4.12276 15.8006 4.11386 15.7866 4.10714 15.7396L0.147334 16.3052C0.275502 17.2025 0.674161 18.0365 1.35367 18.6724C2.02763 19.303 2.87348 19.6419 3.74495 19.741L4.19672 15.7666ZM4.10714 15.7396C3.95029 14.6416 3.99578 13.5043 4.05498 12.1547L0.058818 11.9794C0.00257443 13.2617 -0.0711629 14.7756 0.147335 16.3052L4.10714 15.7396ZM4.05498 12.1547C4.05544 12.144 4.05541 12.1735 4.03124 12.2248C4.00674 12.2768 3.96995 12.3244 3.92902 12.3598C3.84547 12.4321 3.82588 12.3912 3.97297 12.3897L3.93035 8.38989C3.00974 8.3997 2.06532 8.68328 1.31259 9.33421C0.538591 10.0035 0.104103 10.9469 0.0588178 11.9794L4.05498 12.1547ZM3.97297 12.3897C5.59949 12.3723 7.21916 12.3676 8.83396 12.3891L8.88742 8.38951C7.23008 8.36735 5.57628 8.37235 3.93035 8.38989L3.97297 12.3897ZM8.83398 12.3891C9.26626 12.3949 9.81793 12.3393 10.3764 12.0521C10.9426 11.7609 11.3186 11.3337 11.5779 10.9374L8.23038 8.74782C8.21898 8.76525 8.31436 8.61463 8.54703 8.49497C8.77198 8.37928 8.93725 8.39017 8.8874 8.38951L8.83398 12.3891ZM11.5779 10.9374C13.987 7.25413 17.2699 4.96699 21.6631 4.24195L21.0118 0.295331C15.4331 1.21602 11.2065 4.19768 8.23038 8.74782L11.5779 10.9374ZM21.6631 4.24195C27.8521 3.22055 33.8042 5.41745 37.3882 10.9363L40.7429 8.75771C36.2019 1.7653 28.5962 -0.956365 21.0118 0.295331L21.6631 4.24195ZM37.3882 10.9363C37.7901 11.5552 38.1203 12.1456 38.6206 12.9752L42.0459 10.9094C41.6266 10.2141 41.1901 9.44634 40.7429 8.75771L37.3882 10.9363ZM41.2571 13.7161C43.5936 12.4993 45.8531 12.4974 48.1866 13.7135L50.0352 10.1663C46.5401 8.34488 42.9008 8.35016 39.4095 10.1684L41.2571 13.7161ZM50.0062 13.7283C50.6212 13.4204 50.9682 12.9616 51.1646 12.6111C51.2496 12.4594 51.3122 12.3165 51.3367 12.2612C51.3735 12.1785 51.3665 12.1969 51.3518 12.2238L47.839 10.3107C47.7966 10.3886 47.7627 10.4586 47.738 10.5117C47.7145 10.562 47.6925 10.612 47.6816 10.6365C47.651 10.7053 47.6573 10.6875 47.675 10.6559C47.6984 10.6142 47.7541 10.5229 47.852 10.4207C47.9549 10.3131 48.0789 10.2199 48.2156 10.1515L50.0062 13.7283ZM51.3518 12.2238C53.3291 8.59301 56.1191 6.03428 60.0478 4.76682L58.8196 0.960026C53.7813 2.58548 50.2354 5.91028 47.839 10.3107L51.3518 12.2238ZM60.0478 4.76682C62.3391 4.02758 64.6912 3.82752 67.1259 4.14942L67.6502 0.183935C64.6479 -0.213022 61.696 0.0320537 58.8196 0.960026L60.0478 4.76682ZM67.1259 4.14942C71.7734 4.7639 75.2567 7.02294 77.8588 10.8107L81.1558 8.54581C77.9466 3.8742 73.4801 0.954743 67.6502 0.183935L67.1259 4.14942ZM77.8588 10.8108C78.1292 11.2044 78.5188 11.6598 79.1059 11.9845C79.712 12.3196 80.3438 12.4144 80.9318 12.3952L80.8009 8.39734C80.7646 8.39853 80.7812 8.3944 80.833 8.40507C80.8898 8.41679 80.9641 8.44121 81.0415 8.48398C81.1976 8.5703 81.2316 8.65618 81.1558 8.54579L77.8588 10.8108ZM80.9318 12.3952C82.3874 12.3475 83.8311 12.3762 85.3776 12.3838L85.3973 8.38384C83.9293 8.37661 82.3562 8.34642 80.8009 8.39734L80.9318 12.3952ZM85.3776 12.3838C85.55 12.3846 85.6291 12.4081 85.6433 12.413C85.6489 12.4149 85.6385 12.4119 85.6177 12.3993C85.5965 12.3864 85.5701 12.367 85.5433 12.3405C85.5165 12.3139 85.4958 12.2867 85.4812 12.2631C85.4669 12.24 85.4622 12.2262 85.4626 12.2275C85.4644 12.2326 85.4867 12.3013 85.4869 12.4625L89.4869 12.4555C89.4852 11.4352 89.2034 10.3352 88.3574 9.49779C87.5158 8.66461 86.4158 8.38885 85.3973 8.38384L85.3776 12.3838ZM85.4869 12.4625C85.4887 13.4753 85.4925 14.4667 85.4824 15.458L89.4822 15.4986C89.4926 14.4772 89.4887 13.4555 89.4869 12.4555L85.4869 12.4625ZM85.4824 15.458C85.4806 15.6358 85.4561 15.724 85.4469 15.7505C85.4403 15.7695 85.4462 15.7458 85.4775 15.7132C85.5502 15.6375 85.5258 15.7389 85.1113 15.7768L85.4756 19.7602C86.4949 19.667 87.5579 19.3221 88.363 18.4834C89.1801 17.6323 89.4716 16.5446 89.4822 15.4986L85.4824 15.458ZM85.1113 15.7768C84.5479 15.8284 83.874 15.8895 83.1973 16.0176L83.9414 19.9478C84.3998 19.861 84.8856 19.8142 85.4756 19.7602L85.1113 15.7768ZM83.1973 16.0176C82.4727 16.1548 81.6196 16.445 80.9686 17.1913C80.3416 17.91 80.1593 18.7641 80.0806 19.4078L84.051 19.8931C84.0612 19.8096 84.0716 19.7488 84.0807 19.7057C84.0898 19.6626 84.0962 19.6439 84.0965 19.643C84.0966 19.6428 84.0895 19.6633 84.0707 19.6971C84.0512 19.732 84.0225 19.7753 83.9828 19.8208C83.9429 19.8666 83.9002 19.9051 83.8591 19.9354C83.8189 19.9651 83.7878 19.9814 83.7738 19.9881C83.7606 19.9943 83.7646 19.9911 83.7928 19.9826C83.8213 19.9739 83.869 19.9615 83.9414 19.9478L83.1973 16.0176ZM80.0806 19.4078C79.6715 22.7545 78.5958 25.4937 76.8938 27.6586C75.1952 29.8194 72.7861 31.5186 69.5306 32.6542L70.848 36.431C74.7188 35.0808 77.8029 32.9744 80.0384 30.1308C82.2707 27.2913 83.5701 23.8274 84.051 19.8931L80.0806 19.4078ZM69.5306 32.6542C65.8115 33.9515 62.0574 33.6557 58.329 31.9013L56.626 35.5207C61.2055 37.6755 66.0442 38.1067 70.848 36.431L69.5306 32.6542ZM79.4596 13.7816C76.9264 6.51762 69.3905 2.41872 61.7866 3.99672L62.5993 7.91327C68.3185 6.72641 73.8372 9.80685 75.6827 15.0987L79.4596 13.7816ZM61.7866 3.99672C55.5324 5.29461 50.4194 10.4211 49.8506 17.223L53.8367 17.5564C54.2452 12.6713 57.9261 8.88309 62.5993 7.91327L61.7866 3.99672ZM49.8506 17.223C49.4784 21.6739 50.8188 25.6859 54.0252 28.9779L56.8907 26.1869C54.5244 23.7575 53.5572 20.8989 53.8367 17.5564L49.8506 17.223ZM54.0252 28.9779C57.8864 32.9421 62.7126 34.2919 68.0666 33.2616L67.3108 29.3337C63.1946 30.1257 59.7549 29.1276 56.8907 26.1869L54.0252 28.9779ZM68.0666 33.2616C75.9592 31.7429 82.515 23.1524 79.4727 13.8202L75.6697 15.06C77.879 21.837 73.1238 28.2151 67.3108 29.3336L68.0666 33.2616ZM15.3052 6.64343C14.6174 7.16931 13.8929 7.77326 13.232 8.50834L16.2065 11.1827C16.6304 10.7112 17.1356 10.2792 17.7346 9.8212L15.3052 6.64343ZM13.2319 8.50834C9.23779 12.9507 8.24878 18.2388 10.3264 23.6859L14.0638 22.2604C12.5296 18.2382 13.1984 14.5283 16.2065 11.1827L13.2319 8.50834ZM10.3264 23.6859C11.4222 26.5588 13.0997 28.9434 15.4 30.6602C17.7025 32.3785 20.5167 33.3441 23.7492 33.5548L24.0094 29.5633C21.4332 29.3953 19.3884 28.6456 17.7925 27.4545C16.1945 26.2619 14.9344 24.5429 14.0638 22.2604L10.3264 23.6859ZM23.7492 33.5548C27.4722 33.7976 30.9307 32.7794 33.8457 30.4583L31.3542 27.3291C29.2565 28.9993 26.7911 29.7447 24.0094 29.5633L23.7492 33.5548ZM33.8457 30.4583C37.9774 27.1686 40.1343 22.7857 39.6855 17.3672L35.6992 17.6973C36.0275 21.6613 34.543 24.7901 31.3542 27.3291L33.8457 30.4583ZM39.6855 17.3672C39.4321 14.3068 38.2921 11.5999 36.3865 9.25524L33.2824 11.7781C34.7039 13.5271 35.5153 15.4773 35.6992 17.6973L39.6855 17.3672ZM36.3865 9.25524C33.7434 6.00314 30.2247 4.19142 26.038 3.78553L25.652 7.76687C28.8259 8.07457 31.346 9.3955 33.2824 11.7781L36.3865 9.25524ZM26.038 3.78553C22.1839 3.41189 18.6075 4.28703 15.3587 6.60398L17.6812 9.86065C20.1081 8.12983 22.7136 7.482 25.652 7.76687L26.038 3.78553ZM8.76374 13.0685C8.45536 12.2888 7.85671 11.502 6.90803 11.1347C5.87811 10.736 4.79659 10.9773 3.99931 11.6394L6.55485 14.7166C6.46823 14.7886 6.31413 14.8817 6.09478 14.9224C5.87201 14.9636 5.65089 14.9373 5.46379 14.8649C5.10137 14.7246 5.02538 14.4923 5.04409 14.5396L8.76374 13.0685ZM3.9993 11.6394C3.66369 11.9181 3.22513 12.3726 2.99356 13.0403C2.73533 13.7848 2.8166 14.5565 3.15537 15.2329L6.73188 13.4416C6.7728 13.5233 6.82285 13.6586 6.83744 13.838C6.85231 14.0209 6.82594 14.1975 6.77272 14.351C6.67463 14.6338 6.52103 14.7447 6.55486 14.7166L3.9993 11.6394ZM3.15537 15.2329C3.51265 15.9463 4.52162 17.2823 6.32888 16.9764L5.66132 13.0325C5.79368 13.0101 5.9544 13.0102 6.12503 13.0519C6.29305 13.0929 6.4278 13.1636 6.52544 13.2334C6.70244 13.36 6.74828 13.4744 6.73188 13.4416L3.15537 15.2329ZM6.32887 16.9764C6.97787 16.8665 7.70577 16.5563 8.24245 15.8812C8.77393 15.2126 8.92564 14.4277 8.90282 13.7379L4.90501 13.8702C4.90596 13.8988 4.89449 13.6648 5.11123 13.3921C5.33318 13.1129 5.59479 13.0437 5.66133 13.0325L6.32887 16.9764ZM83.8925 17.0045C84.6489 16.9042 85.2475 16.5504 85.6871 16.1305L82.9242 13.238C82.9496 13.2138 83.0022 13.1696 83.0848 13.1273C83.1703 13.0835 83.2674 13.0523 83.3667 13.0392L83.8925 17.0045ZM85.6871 16.1305C86.1903 15.6498 86.5807 14.9797 86.6452 14.1755C86.7107 13.3585 86.4219 12.611 85.941 12.0432L82.8887 14.6284C82.7622 14.4791 82.63 14.2041 82.658 13.8558C82.6849 13.5203 82.8434 13.3152 82.9242 13.238L85.6871 16.1305ZM85.941 12.0432C84.9335 10.8537 83.1609 10.57 81.8346 11.5629L84.2317 14.7651C84.0352 14.9122 83.7708 14.9868 83.502 14.9526C83.2376 14.9189 83.0238 14.788 82.8886 14.6284L85.941 12.0432ZM81.8346 11.5629C81.1253 12.0939 80.4041 13.0932 80.6391 14.4361L84.5792 13.7466C84.62 13.9798 84.5832 14.2325 84.4781 14.448C84.3838 14.6414 84.269 14.7372 84.2317 14.7651L81.8346 11.5629ZM80.6391 14.436C80.7448 15.04 81.0212 15.6643 81.5592 16.1654C82.0799 16.6503 82.7003 16.8843 83.2673 16.9887L83.9919 13.0549C83.9457 13.0464 84.0996 13.0652 84.2852 13.2381C84.4882 13.4271 84.561 13.6427 84.5792 13.7466L80.6391 14.436Z" fill="#185A96" mask="url(#path-1-outside-1_2489_6758)"></path>
</svg><style>@media (prefers-color-scheme: light) { :root { filter: none; } }
</style></svg>